<svg xmlns="http://www.w3.org/2000/svg" version="1.1" xmlns:xlink="http://www.w3.org/1999/xlink" width="200" height="200"><svg xmlns="http://www.w3.org/2000/svg" version="1.1" xmlns:xlink="http://www.w3.org/1999/xlink" viewBox="0 0 200 200"><rect width="200" height="200" fill="url('#gradient')"></rect><defs><linearGradient id="SvgjsLinearGradient1001" gradientTransform="rotate(45 0.5 0.5)"><stop offset="0%" stop-color="#219ea6"></stop><stop offset="100%" stop-color="#541238"></stop></linearGradient></defs><g><g fill="#fffafa" transform="matrix(1.423100679431748,0,0,1.423100679431748,8.471873982074897,110.54028698071203)" stroke="#219ea6" stroke-width="0.2"><path d="M1.07-14.22L5.58-14.22L8.75-4.33L11.91-14.22L16.43-14.22L16.43 0L12.99 0L12.99-3.32L13.32-10.12L9.88 0L7.62 0L4.17-10.13L4.50-3.32L4.50 0L1.07 0L1.07-14.22ZM18.05-4.82L18.04-5.38Q18.04-6.96 18.65-8.20Q19.27-9.43 20.42-10.10Q21.57-10.76 23.13-10.76L23.13-10.76Q25.50-10.76 26.87-9.29Q28.23-7.82 28.23-5.29L28.23-5.29L28.23-5.18Q28.23-2.71 26.86-1.25Q25.49 0.20 23.14 0.20L23.14 0.20Q20.89 0.20 19.52-1.16Q18.15-2.51 18.05-4.82L18.05-4.82ZM21.34-5.77L21.33-5.18Q21.33-3.71 21.79-3.03Q22.25-2.34 23.14-2.34L23.14-2.34Q24.90-2.34 24.94-5.05L24.94-5.05L24.94-5.38Q24.94-8.22 23.13-8.22L23.13-8.22Q21.47-8.22 21.34-5.77L21.34-5.77ZM29.62-10.57L32.71-10.57L32.81-9.33Q33.91-10.76 35.83-10.76L35.83-10.76Q37.48-10.76 38.30-9.78Q39.11-8.79 39.14-6.81L39.14-6.81L39.14 0L35.84 0L35.84-6.67Q35.84-7.47 35.52-7.85Q35.20-8.22 34.35-8.22L34.35-8.22Q33.38-8.22 32.91-7.46L32.91-7.46L32.91 0L29.62 0L29.62-10.57ZM44.43-10.57L44.43 0L41.13 0L41.13-10.57L44.43-10.57ZM40.94-13.29L40.94-13.29Q40.94-13.99 41.45-14.44Q41.95-14.89 42.76-14.89Q43.57-14.89 44.08-14.44Q44.59-13.99 44.59-13.29Q44.59-12.59 44.08-12.14Q43.57-11.69 42.76-11.69Q41.95-11.69 41.45-12.14Q40.94-12.59 40.94-13.29ZM53.01 0L50.70-3.94L49.78-3.01L49.78 0L46.48 0L46.48-15.01L49.78-15.01L49.78-7.04L50.11-7.48L52.59-10.57L56.53-10.57L52.83-6.22L56.78 0L53.01 0ZM66.64 0L63.35 0Q63.17-0.32 63.04-0.95L63.04-0.95Q62.13 0.20 60.50 0.20L60.50 0.20Q59.00 0.20 57.96-0.71Q56.91-1.61 56.91-2.98L56.91-2.98Q56.91-4.70 58.18-5.58Q59.45-6.46 61.88-6.46L61.88-6.46L62.89-6.46L62.89-7.01Q62.89-8.47 61.63-8.47L61.63-8.47Q60.46-8.47 60.46-7.31L60.46-7.31L57.17-7.31Q57.17-8.85 58.47-9.80Q59.78-10.76 61.80-10.76Q63.82-10.76 64.99-9.78Q66.16-8.79 66.19-7.07L66.19-7.07L66.19-2.39Q66.21-0.94 66.64-0.17L66.64-0.17L66.64 0ZM61.29-2.15L61.29-2.15Q61.90-2.15 62.31-2.41Q62.71-2.68 62.89-3.01L62.89-3.01L62.89-4.70L61.93-4.70Q60.21-4.70 60.21-3.15L60.21-3.15Q60.21-2.71 60.52-2.43Q60.82-2.15 61.29-2.15ZM80.48-3.78L80.48-3.78Q80.48-4.53 79.95-4.95Q79.41-5.37 78.08-5.82Q76.74-6.27 75.89-6.69L75.89-6.69Q73.13-8.05 73.13-10.42L73.13-10.42Q73.13-11.60 73.81-12.50Q74.50-13.41 75.76-13.91Q77.02-14.41 78.59-14.41L78.59-14.41Q80.13-14.41 81.34-13.87Q82.56-13.32 83.23-12.31Q83.91-11.30 83.91-10L83.91-10L80.49-10Q80.49-10.87 79.96-11.35Q79.42-11.83 78.52-11.83L78.52-11.83Q77.60-11.83 77.07-11.42Q76.53-11.02 76.53-10.39L76.53-10.39Q76.53-9.84 77.12-9.40Q77.71-8.96 79.18-8.48Q80.65-8.01 81.60-7.46L81.60-7.46Q83.91-6.13 83.91-3.80L83.91-3.80Q83.91-1.93 82.50-0.87Q81.09 0.20 78.64 0.20L78.64 0.20Q76.91 0.20 75.51-0.42Q74.11-1.04 73.40-2.12Q72.70-3.20 72.70-4.61L72.70-4.61L76.13-4.61Q76.13-3.47 76.72-2.92Q77.31-2.38 78.64-2.38L78.64-2.38Q79.49-2.38 79.99-2.75Q80.48-3.12 80.48-3.78ZM85.11-4.82L85.10-5.38Q85.10-6.96 85.71-8.20Q86.33-9.43 87.48-10.10Q88.63-10.76 90.19-10.76L90.19-10.76Q92.56-10.76 93.93-9.29Q95.29-7.82 95.29-5.29L95.29-5.29L95.29-5.18Q95.29-2.71 93.92-1.25Q92.55 0.20 90.21 0.20L90.21 0.20Q87.95 0.20 86.58-1.16Q85.21-2.51 85.11-4.82L85.11-4.82ZM88.40-5.77L88.39-5.18Q88.39-3.71 88.85-3.03Q89.31-2.34 90.21-2.34L90.21-2.34Q91.96-2.34 92.00-5.05L92.00-5.05L92.00-5.38Q92.00-8.22 90.19-8.22L90.19-8.22Q88.54-8.22 88.40-5.77L88.40-5.77ZM103.13 0L103.04-1.14Q101.99 0.20 100.21 0.20L100.21 0.20Q98.48 0.20 97.58-0.82Q96.69-1.83 96.69-3.72L96.69-3.72L96.69-10.57L99.98-10.57L99.98-3.70Q99.98-2.34 101.30-2.34L101.30-2.34Q102.43-2.34 102.91-3.15L102.91-3.15L102.91-10.57L106.22-10.57L106.22 0L103.13 0ZM116.61-8.79L111.90-2.54L116.72-2.54L116.72 0L107.74 0L107.74-1.84L112.43-8.03L107.95-8.03L107.95-10.57L116.61-10.57L116.61-8.79ZM127.56 0L124.27 0Q124.09-0.32 123.96-0.95L123.96-0.95Q123.05 0.20 121.42 0.20L121.42 0.20Q119.92 0.20 118.88-0.71Q117.83-1.61 117.83-2.98L117.83-2.98Q117.83-4.70 119.10-5.58Q120.37-6.46 122.79-6.46L122.79-6.46L123.81-6.46L123.81-7.01Q123.81-8.47 122.55-8.47L122.55-8.47Q121.38-8.47 121.38-7.31L121.38-7.31L118.09-7.31Q118.09-8.85 119.39-9.80Q120.69-10.76 122.71-10.76Q124.74-10.76 125.91-9.78Q127.08-8.79 127.11-7.07L127.11-7.07L127.11-2.39Q127.13-0.94 127.56-0.17L127.56-0.17L127.56 0ZM122.21-2.15L122.21-2.15Q122.82-2.15 123.23-2.41Q123.63-2.68 123.81-3.01L123.81-3.01L123.81-4.70L122.85-4.70Q121.13-4.70 121.13-3.15L121.13-3.15Q121.13-2.71 121.44-2.43Q121.74-2.15 122.21-2.15Z"></path></g></g></svg><style>@media (prefers-color-scheme: light) { :root { filter: none; } }
@media (prefers-color-scheme: dark) { :root { filter: none; } }
</style></svg>